<?xml version="1.0" encoding="UTF-8"?>
<svg id="_圖層_1" data-name="圖層 1" xmlns="http://www.w3.org/2000/svg" viewBox="0 0 129.29 76.95">
  <defs>
    <style>
      .cls-1 {
        fill: #336FFF;
        fill-rule: evenodd;
        stroke-width: 0px;
      }

      .cls-2 {
        fill: #336FFF;
        font-family: MicrosoftJhengHeiUIRegular, 'Microsoft JhengHei UI';
        font-size: 6.16px;
      }

      .cls-3 {
        letter-spacing: .05em;
      }

      .cls-4 {
        letter-spacing: 0em;
      }
    </style>
  </defs>
  <path class="cls-1" d="m70.85,59.12l-1.16-.83c-.98.82-2.33,3.13-3.35,4.23-3.88,4.2-7.32,7.21-13.1,9.69C28.35,82.94,1.54,64.65,1.62,38.48,1.68,20.74,13.64,7.58,27.36,3.38c14.46-4.43,29.58.17,38.98,11.06,1.3,1.5,2.08,2.9,3.31,4.29l1.27-.81c-2.95-5.88-11.04-12.07-17.13-14.69C45.53-.33,36.14-1.14,26.95,1.77,15.67,5.34,6.35,14.12,2.46,24.81c-7.66,21.09,3.15,43.51,24.27,50.37,12.64,4.1,27.5.85,36.76-7.35,1.93-1.71,6.56-6.43,7.36-8.71Z"/>
  <path class="cls-1" d="m123.91,36.32c-.87,2.05-3.2,1.61-5.77,1.61-4.46,0-3.73.77-3.71-3.8,0-1.87.46-1.27,5.88-1.27,2.22,0,4.75.77,3.6,3.46h0Zm-9.32-12.42c4.65-.06,9.61-.91,9.49,2.56-.12,3.37-5.08,2.53-9.62,2.47l.13-5.03h0Zm-4.81,17.87c2.45.29,14.24.23,16.09-.36,3.8-1.21,5.14-7.81.39-10.36.81-.93,2.95-1.85,2.97-5.28.01-2.6-1.33-4.49-3.21-5.25-1.84-.74-13.62-.74-16.21-.45l-.03,21.71Z"/>
  <path class="cls-1" d="m86.26,41.77l4.45.08.07-15.6c3.21,4.62,5.67,10.8,8.87,15.53l5.69.05.02-21.76-4.38-.06-.08,15.83c-1.22-1.11-6.41-12.58-8.7-15.8l-5.92-.04-.03,21.76Z"/>
  <path class="cls-1" d="m35.89,38.4l-.08-9.06c4.24-.13,7.18-.11,7.11,4.59-.07,4.47-2.84,4.61-7.03,4.47h0Zm-4.48,9.44l4.36-.02.06-5.96c3.6-.02,6.85.39,9.12-1.68,1.87-1.71,3.05-4.56,2.33-8.37-1.33-7.06-8.26-6.2-15.84-5.87l-.04,21.9Z"/>
  <path class="cls-1" d="m23.39,36.08c-1.4,4.84-9.52,3.04-7.3-4.38,1.41-4.71,9.49-3.2,7.3,4.38h0Zm-5.66-10.22c-10.17,2.04-8.28,18.28,4.03,16.05,4.41-.8,7.31-4.61,6.21-9.98-.93-4.55-4.66-7.19-10.24-6.07Z"/>
  <path class="cls-1" d="m68.22,41.83l3.41.08-.04-12.51c.99-.21,3.78-.29,4.75-.05,1.54.37,1.42,1.71,1.42,3.37.01,2.89.08,6.19-.08,9.08l4.34-.07.1-4.45c.07-4.19.59-8.88-2.34-10.62-2.04-1.21-9.72-.92-12.52-.72v15.87s.96.02.96.02Z"/>
  <path class="cls-1" d="m63.66,41.83l.05-3.39c-5.36-.22-8.65,1.02-9.21-2.87h9.14s.07-3.41.07-3.41l-9.11-.02c-.18-3.65,4.09-3,9.05-2.81l.07-3.41c-6.28-.25-14.25-1.11-14.08,7.99.16,8.89,8,8.14,14.02,7.91Z"/>
  <text class="cls-2" transform="translate(40.76 54.52)"><tspan class="cls-3" x="0" y="0">开源宁波开发者社</tspan><tspan class="cls-4" x="51.78" y="0">区</tspan></text>
</svg>