<svg width="1280" height="789" viewBox="0 0 1280 789" fill="none" xmlns="http://www.w3.org/2000/svg">
    <g clip-path="url(#clip0_496_16)">
        <path d="M1419.03 442.443H855.147C829.798 442.443 809.249 421.894 809.249 396.546V-167.342C809.249 -192.69 829.798 -213.24 855.147 -213.24H1419.03C1444.38 -213.24 1464.93 -192.69 1464.93 -167.342V396.546C1464.93 421.894 1444.38 442.443 1419.03 442.443Z" fill="url(#paint0_linear_496_16)"/>
        <path d="M1254.62 473.555H768.506C746.654 473.555 728.939 455.84 728.939 433.988V-52.1222C728.939 -73.9745 746.654 -91.6893 768.506 -91.6893H1254.62C1276.47 -91.6893 1294.18 -73.9745 1294.18 -52.1222V433.988C1294.18 455.84 1276.47 473.555 1254.62 473.555Z" fill="url(#paint1_linear_496_16)"/>
        <path d="M1093.57 510.03H674.505C655.667 510.03 640.396 494.759 640.396 475.921V56.8606C640.396 38.0224 655.667 22.751 674.505 22.751H1093.57C1112.4 22.751 1127.68 38.0224 1127.68 56.8606V475.921C1127.68 494.759 1112.4 510.03 1093.57 510.03Z" fill="url(#paint2_linear_496_16)"/>
        <path d="M935.418 551.129H574.16C557.92 551.129 544.755 537.964 544.755 521.725V160.466C544.755 144.226 557.92 131.061 574.16 131.061H935.418C951.658 131.061 964.823 144.226 964.823 160.466V521.725C964.823 537.964 951.658 551.129 935.418 551.129Z" fill="url(#paint3_linear_496_16)"/>
        <path d="M779.775 596.215H468.345C454.345 596.215 442.996 584.866 442.996 570.866V259.436C442.996 245.436 454.345 234.087 468.345 234.087H779.775C793.774 234.087 805.123 245.436 805.123 259.436V570.866C805.123 584.866 793.774 596.215 779.775 596.215Z" fill="url(#paint4_linear_496_16)"/>
        <path d="M626.288 644.737H357.814C345.745 644.737 335.962 634.954 335.962 622.885V354.411C335.962 342.342 345.745 332.558 357.814 332.558H626.288C638.357 332.558 648.141 342.342 648.141 354.411V622.885C648.141 634.954 638.357 644.737 626.288 644.737Z" fill="url(#paint5_linear_496_16)"/>
        <path d="M474.662 696.222H243.219C232.815 696.222 224.381 687.787 224.381 677.383V445.94C224.381 435.536 232.815 427.102 243.219 427.102H474.662C485.067 427.102 493.501 435.536 493.501 445.94V677.383C493.501 687.787 485.067 696.222 474.662 696.222Z" fill="url(#paint6_linear_496_16)"/>
        <path d="M324.64 750.26H125.12C116.151 750.26 108.88 742.989 108.88 734.02V534.5C108.88 525.531 116.151 518.26 125.12 518.26H324.64C333.609 518.26 340.88 525.531 340.88 534.5V734.02C340.88 742.989 333.609 750.26 324.64 750.26Z" fill="url(#paint7_linear_496_16)"/>
        <path d="M176 806.5H4C-3.73199 806.5 -10 800.232 -10 792.5V620.5C-10 612.768 -3.73199 606.5 4 606.5H176C183.732 606.5 190 612.768 190 620.5V792.5C190 800.232 183.732 806.5 176 806.5Z" fill="url(#paint8_linear_496_16)"/>
        <path d="M548.6 351.76H601.46V358.18H548.6V351.76ZM571.7 354.46H579.26V378.7C579.26 381.14 579.02 383.48 578.54 385.72C578.06 387.96 577.22 390.08 576.02 392.08C574.86 394.08 573.24 395.92 571.16 397.6C569.12 399.28 566.5 400.78 563.3 402.1C560.1 403.42 556.24 404.54 551.72 405.46C551.44 404.9 551.04 404.22 550.52 403.42C550.04 402.62 549.52 401.82 548.96 401.02C548.4 400.26 547.86 399.6 547.34 399.04C551.66 398.4 555.28 397.58 558.2 396.58C561.12 395.58 563.48 394.46 565.28 393.22C567.08 391.94 568.44 390.54 569.36 389.02C570.28 387.5 570.9 385.88 571.22 384.16C571.54 382.4 571.7 380.56 571.7 378.64V354.46ZM560.66 376.78V380.68H590.54V376.78H560.66ZM560.66 367.48V371.38H590.54V367.48H560.66ZM553.82 361.66H597.68V386.5H553.82V361.66ZM560.96 386.2C563.08 388.88 565.54 391 568.34 392.56C571.18 394.12 574.36 395.28 577.88 396.04C581.44 396.76 585.38 397.22 589.7 397.42C594.06 397.58 598.8 397.66 603.92 397.66C603.28 398.46 602.66 399.54 602.06 400.9C601.46 402.26 601.06 403.54 600.86 404.74C595.58 404.66 590.64 404.4 586.04 403.96C581.44 403.56 577.2 402.8 573.32 401.68C569.44 400.6 565.94 399.02 562.82 396.94C559.7 394.86 557 392.12 554.72 388.72L560.96 386.2ZM619.46 363.94L624.26 359.92C625.5 360.48 626.8 361.14 628.16 361.9C629.52 362.66 630.8 363.44 632 364.24C633.24 365.04 634.24 365.8 635 366.52L629.96 370.96C629.24 370.24 628.28 369.46 627.08 368.62C625.88 367.78 624.62 366.94 623.3 366.1C621.98 365.26 620.7 364.54 619.46 363.94ZM646.52 353.56H647.84L649.04 353.2L653.66 355.96C651.74 359.56 649.28 362.78 646.28 365.62C643.28 368.42 639.9 370.86 636.14 372.94C632.42 375.02 628.46 376.8 624.26 378.28C620.06 379.72 615.8 380.88 611.48 381.76C611.16 380.84 610.68 379.78 610.04 378.58C609.44 377.34 608.82 376.34 608.18 375.58C612.22 374.94 616.2 374.02 620.12 372.82C624.04 371.58 627.72 370.08 631.16 368.32C634.6 366.56 637.64 364.54 640.28 362.26C642.92 359.94 645 357.38 646.52 354.58V353.56ZM627.5 353.56H648.14V359.44H627.5V353.56ZM630.86 348.82L638.72 350.5C635.64 353.98 632.04 357.14 627.92 359.98C623.84 362.82 619.02 365.36 613.46 367.6C613.1 367.04 612.64 366.42 612.08 365.74C611.56 365.06 610.98 364.4 610.34 363.76C609.74 363.12 609.18 362.62 608.66 362.26C612.18 361.14 615.36 359.84 618.2 358.36C621.04 356.88 623.52 355.34 625.64 353.74C627.76 352.1 629.5 350.46 630.86 348.82ZM627.62 386.68L632.84 382.6C634.08 383.28 635.38 384.04 636.74 384.88C638.1 385.72 639.4 386.6 640.64 387.52C641.88 388.4 642.88 389.22 643.64 389.98L638.06 394.42C637.38 393.66 636.44 392.82 635.24 391.9C634.08 390.98 632.82 390.06 631.46 389.14C630.14 388.22 628.86 387.4 627.62 386.68ZM654.08 375.4H655.52L656.78 375.1L661.52 377.56C659.68 382.04 657.26 385.88 654.26 389.08C651.3 392.28 647.84 394.96 643.88 397.12C639.96 399.28 635.66 401.02 630.98 402.34C626.34 403.66 621.44 404.68 616.28 405.4C616 404.44 615.56 403.32 614.96 402.04C614.36 400.76 613.76 399.7 613.16 398.86C617.92 398.38 622.46 397.6 626.78 396.52C631.1 395.44 635.06 394.02 638.66 392.26C642.26 390.46 645.36 388.26 647.96 385.66C650.6 383.02 652.64 379.94 654.08 376.42V375.4ZM636.38 375.4H656V381.4H636.38V375.4ZM640.58 369.58L648.44 371.38C645.12 375.34 641.08 378.92 636.32 382.12C631.6 385.28 625.9 388.06 619.22 390.46C618.98 389.86 618.6 389.22 618.08 388.54C617.56 387.82 617.02 387.12 616.46 386.44C615.9 385.76 615.36 385.22 614.84 384.82C619.04 383.54 622.78 382.1 626.06 380.5C629.38 378.86 632.24 377.12 634.64 375.28C637.08 373.4 639.06 371.5 640.58 369.58ZM667.16 355.48H687.2V362.32H667.16V355.48ZM674.12 358.36H681.26V388.42H674.12V358.36ZM666.14 387.46C667.86 387.06 669.86 386.56 672.14 385.96C674.42 385.36 676.88 384.72 679.52 384.04C682.16 383.36 684.8 382.66 687.44 381.94L688.34 387.94C684.78 389.22 681.22 390.48 677.66 391.72C674.1 392.92 670.84 394.04 667.88 395.08L666.14 387.46ZM687.98 351.34H722.78V357.76H687.98V351.34ZM700.82 354.28L709.46 355.42C708.54 357.3 707.6 359.14 706.64 360.94C705.68 362.74 704.84 364.28 704.12 365.56L697.58 364.18C698.26 362.7 698.88 361.06 699.44 359.26C700.04 357.42 700.5 355.76 700.82 354.28ZM701 371.02H708.26V383.38C708.26 385.46 707.96 387.54 707.36 389.62C706.76 391.7 705.7 393.7 704.18 395.62C702.7 397.54 700.6 399.34 697.88 401.02C695.16 402.7 691.7 404.2 687.5 405.52C687.22 405 686.8 404.4 686.24 403.72C685.72 403.04 685.16 402.36 684.56 401.68C684 401 683.44 400.44 682.88 400C686.92 399 690.14 397.86 692.54 396.58C694.94 395.26 696.74 393.86 697.94 392.38C699.18 390.86 700 389.34 700.4 387.82C700.8 386.26 701 384.74 701 383.26V371.02ZM706.16 395.68L710.6 391.36C712.04 392.16 713.56 393.1 715.16 394.18C716.8 395.22 718.36 396.28 719.84 397.36C721.36 398.4 722.6 399.36 723.56 400.24L718.76 405.1C717.88 404.22 716.72 403.2 715.28 402.04C713.88 400.92 712.36 399.8 710.72 398.68C709.12 397.56 707.6 396.56 706.16 395.68ZM689.66 362.44H719.78V390.58H712.4V368.74H696.68V390.76H689.66V362.44ZM738.62 366.16H771.2V373H738.62V366.16ZM738.62 380.08H771.2V386.92H738.62V380.08ZM738.62 393.94H771.2V400.96H738.62V393.94ZM733.46 352.3H776.24V404.74H768.56V359.32H740.72V404.74H733.46V352.3Z" fill="black"/>
    </g>
    <defs>
        <linearGradient id="paint0_linear_496_16" x1="1464.93" y1="-213.24" x2="809.249" y2="442.443" gradientUnits="userSpaceOnUse">
            <stop offset="0.62" stop-color="#6B57FF" stop-opacity="0.2"/>
            <stop offset="0.85" stop-color="#087CFA" stop-opacity="0.4"/>
            <stop offset="0.975" stop-color="#3BEA62"/>
        </linearGradient>
        <linearGradient id="paint1_linear_496_16" x1="1294.18" y1="-91.6893" x2="728.939" y2="473.555" gradientUnits="userSpaceOnUse">
            <stop offset="0.62" stop-color="#6B57FF" stop-opacity="0.2"/>
            <stop offset="0.85" stop-color="#087CFA" stop-opacity="0.4"/>
            <stop offset="0.975" stop-color="#3BEA62"/>
        </linearGradient>
        <linearGradient id="paint2_linear_496_16" x1="1127.68" y1="22.751" x2="640.396" y2="510.03" gradientUnits="userSpaceOnUse">
            <stop offset="0.62" stop-color="#6B57FF" stop-opacity="0.2"/>
            <stop offset="0.85" stop-color="#087CFA" stop-opacity="0.4"/>
            <stop offset="0.975" stop-color="#3BEA62"/>
        </linearGradient>
        <linearGradient id="paint3_linear_496_16" x1="964.823" y1="131.061" x2="544.755" y2="551.129" gradientUnits="userSpaceOnUse">
            <stop offset="0.62" stop-color="#6B57FF" stop-opacity="0.2"/>
            <stop offset="0.85" stop-color="#087CFA" stop-opacity="0.4"/>
            <stop offset="0.975" stop-color="#3BEA62"/>
        </linearGradient>
        <linearGradient id="paint4_linear_496_16" x1="805.123" y1="234.087" x2="442.996" y2="596.215" gradientUnits="userSpaceOnUse">
            <stop offset="0.62" stop-color="#6B57FF" stop-opacity="0.2"/>
            <stop offset="0.85" stop-color="#087CFA" stop-opacity="0.4"/>
            <stop offset="0.975" stop-color="#3BEA62"/>
        </linearGradient>
        <linearGradient id="paint5_linear_496_16" x1="648.141" y1="332.558" x2="335.962" y2="644.737" gradientUnits="userSpaceOnUse">
            <stop offset="0.62" stop-color="#6B57FF" stop-opacity="0.2"/>
            <stop offset="0.85" stop-color="#087CFA" stop-opacity="0.4"/>
            <stop offset="0.975" stop-color="#3BEA62"/>
        </linearGradient>
        <linearGradient id="paint6_linear_496_16" x1="493.501" y1="427.102" x2="224.381" y2="696.222" gradientUnits="userSpaceOnUse">
            <stop offset="0.62" stop-color="#6B57FF" stop-opacity="0.2"/>
            <stop offset="0.85" stop-color="#087CFA" stop-opacity="0.4"/>
            <stop offset="0.975" stop-color="#3BEA62"/>
        </linearGradient>
        <linearGradient id="paint7_linear_496_16" x1="340.88" y1="518.26" x2="108.88" y2="750.26" gradientUnits="userSpaceOnUse">
            <stop offset="0.62" stop-color="#6B57FF" stop-opacity="0.2"/>
            <stop offset="0.85" stop-color="#087CFA" stop-opacity="0.4"/>
            <stop offset="0.975" stop-color="#3BEA62"/>
        </linearGradient>
        <linearGradient id="paint8_linear_496_16" x1="190" y1="606.5" x2="-10" y2="806.5" gradientUnits="userSpaceOnUse">
            <stop offset="0.62" stop-color="#6B57FF" stop-opacity="0.2"/>
            <stop offset="0.85" stop-color="#087CFA" stop-opacity="0.4"/>
            <stop offset="0.975" stop-color="#3BEA62"/>
        </linearGradient>
        <clipPath id="clip0_496_16">
            <rect width="1280" height="789" fill="white"/>
        </clipPath>
    </defs>
</svg>
