<svg width="5120" height="3156" viewBox="0 0 5120 3156" fill="none" xmlns="http://www.w3.org/2000/svg">
    <g clip-path="url(#clip0_506_35)">
        <path d="M5120 0H0V3156H5120V0Z" fill="#191919"/>
        <path d="M3159.01 -643.829L1052.89 2612.2C869.233 2896.14 950.523 3275.2 1234.46 3458.86L4490.49 5564.98C4774.43 5748.64 5153.49 5667.35 5337.15 5383.41L7443.26 2127.38C7626.92 1843.44 7545.63 1464.38 7261.7 1280.72L4005.66 -825.394C3721.73 -1009.05 3342.67 -927.764 3159.01 -643.829Z" fill="url(#paint0_linear_506_35)"/>
        <path d="M3041.97 -150.534L1710.72 2915.91C1594.63 3183.31 1717.3 3494.19 1984.7 3610.28L5051.14 4941.53C5318.54 5057.62 5629.43 4934.96 5745.51 4667.55L7076.77 1601.11C7192.85 1333.71 7070.19 1022.83 6802.79 906.74L3736.35 -424.511C3468.94 -540.6 3158.06 -417.936 3041.97 -150.534Z" fill="url(#paint1_linear_506_35)"/>
        <path d="M3012.11 285.501L2313.05 3081.28C2252.09 3325.08 2400.31 3572.14 2644.11 3633.1L5439.89 4332.16C5683.69 4393.12 5930.74 4244.9 5991.7 4001.1L6690.77 1205.32C6751.73 961.521 6603.51 714.465 6359.71 653.504L3563.93 -45.5596C3320.13 -106.52 3073.07 41.7007 3012.11 285.501Z" fill="url(#paint2_linear_506_35)"/>
        <path d="M3048.29 660.531L2848.63 3136.85C2831.22 3352.79 2992.16 3541.96 3208.11 3559.37L5684.42 3759.03C5900.37 3776.45 6089.54 3615.5 6106.95 3399.56L6306.61 923.244C6324.02 707.302 6163.08 518.132 5947.14 500.721L3470.82 301.059C3254.88 283.648 3065.71 444.589 3048.29 660.531Z" fill="url(#paint3_linear_506_35)"/>
        <path d="M3132.03 974.358L3311.95 3108.47C3327.64 3294.57 3491.23 3432.72 3677.33 3417.03L5811.44 3237.1C5997.54 3221.41 6135.69 3057.83 6120 2871.73L5940.07 737.615C5924.38 551.514 5760.8 413.369 5574.7 429.059L3440.59 608.983C3254.49 624.673 3116.34 788.257 3132.03 974.358Z" fill="url(#paint4_linear_506_35)"/>
        <path d="M3247.56 1229.42L3701.97 3018.9C3741.59 3174.95 3900.22 3269.33 4056.27 3229.71L5845.75 2775.3C6001.8 2735.68 6096.18 2577.05 6056.56 2421L5602.15 631.514C5562.53 475.466 5403.9 381.086 5247.85 420.712L3458.36 875.116C3302.32 914.742 3207.94 1073.37 3247.56 1229.42Z" fill="url(#paint5_linear_506_35)"/>
        <path d="M3381.83 1430.01L4020.99 2887.65C4076.73 3014.76 4224.95 3072.62 4352.07 3016.89L5809.71 2377.73C5936.82 2321.99 5994.68 2173.77 5938.95 2046.65L5299.79 589.009C5244.05 461.898 5095.82 404.037 4968.71 459.774L3511.07 1098.93C3383.96 1154.67 3326.1 1302.9 3381.83 1430.01Z" fill="url(#paint6_linear_506_35)"/>
        <path d="M3524.35 1581.63L4273.76 2730.98C4339.11 2831.21 4473.34 2859.48 4573.57 2794.13L5722.91 2044.72C5823.14 1979.36 5851.41 1845.14 5786.06 1744.91L5036.65 595.562C4971.3 495.336 4837.07 467.064 4736.84 532.415L3587.5 1281.83C3487.27 1347.18 3459 1481.41 3524.35 1581.63Z" fill="url(#paint7_linear_506_35)"/>
        <path d="M3666.96 1690.45L4466.6 2562.04C4536.33 2638.05 4654.47 2643.14 4730.47 2573.41L5602.07 1773.77C5678.08 1704.04 5683.16 1585.9 5613.43 1509.89L4813.8 638.297C4744.07 562.291 4625.92 557.205 4549.92 626.935L3678.32 1426.57C3602.32 1496.3 3597.23 1614.44 3666.96 1690.45Z" fill="url(#paint8_linear_506_35)"/>
        <path d="M3803.61 1762.85L4606.73 2391.14C4676.76 2445.93 4777.95 2433.57 4832.74 2363.54L5461.04 1560.42C5515.82 1490.39 5503.47 1389.2 5433.43 1334.41L4630.31 706.112C4560.28 651.323 4459.09 663.682 4404.3 733.716L3776 1536.84C3721.22 1606.87 3733.57 1708.06 3803.61 1762.85Z" fill="url(#paint9_linear_506_35)"/>
        <path d="M1840.28 1015V1175H1807.47L1743.8 1082.66H1742.78V1175H1704.11V1015H1737.39L1800.36 1107.19H1801.69V1015H1840.28ZM1864.6 1175V1015H1931.32C1943.3 1015 1953.32 1016.69 1961.39 1020.08C1969.52 1023.46 1975.61 1028.2 1979.68 1034.3C1983.79 1040.39 1985.85 1047.45 1985.85 1055.47C1985.85 1061.56 1984.57 1067.01 1982.02 1071.8C1979.47 1076.54 1975.95 1080.47 1971.47 1083.59C1966.99 1086.72 1961.81 1088.91 1955.93 1090.16V1091.72C1962.38 1092.03 1968.35 1093.78 1973.82 1096.95C1979.34 1100.13 1983.76 1104.56 1987.1 1110.23C1990.43 1115.86 1992.1 1122.53 1992.1 1130.23C1992.1 1138.83 1989.91 1146.51 1985.54 1153.28C1981.16 1160 1974.83 1165.31 1966.55 1169.22C1958.27 1173.07 1948.22 1175 1936.39 1175H1864.6ZM1903.27 1143.83H1927.18C1935.56 1143.83 1941.73 1142.24 1945.69 1139.06C1949.7 1135.89 1951.71 1131.46 1951.71 1125.78C1951.71 1121.67 1950.74 1118.12 1948.82 1115.16C1946.89 1112.14 1944.15 1109.82 1940.61 1108.2C1937.07 1106.54 1932.83 1105.7 1927.88 1105.7H1903.27V1143.83ZM1903.27 1080.78H1924.68C1928.89 1080.78 1932.64 1080.08 1935.93 1078.67C1939.21 1077.27 1941.76 1075.23 1943.58 1072.58C1945.46 1069.92 1946.39 1066.72 1946.39 1062.97C1946.39 1057.6 1944.49 1053.39 1940.69 1050.31C1936.89 1047.24 1931.76 1045.7 1925.3 1045.7H1903.27V1080.78ZM2066.71 1177.27C2054.1 1177.27 2043.27 1174.69 2034.21 1169.53C2025.2 1164.32 2018.24 1157.08 2013.35 1147.81C2008.5 1138.49 2006.08 1127.68 2006.08 1115.39C2006.08 1103.05 2008.5 1092.24 2013.35 1082.97C2018.24 1073.65 2025.2 1066.41 2034.21 1061.25C2043.27 1056.04 2054.1 1053.44 2066.71 1053.44C2079.31 1053.44 2090.12 1056.04 2099.13 1061.25C2108.19 1066.41 2115.14 1073.65 2119.99 1082.97C2124.88 1092.24 2127.33 1103.05 2127.33 1115.39C2127.33 1127.68 2124.88 1138.49 2119.99 1147.81C2115.14 1157.08 2108.19 1164.32 2099.13 1169.53C2090.12 1174.69 2079.31 1177.27 2066.71 1177.27ZM2066.94 1148.44C2071.52 1148.44 2075.4 1147.03 2078.58 1144.22C2081.76 1141.41 2084.18 1137.5 2085.85 1132.5C2087.57 1127.5 2088.43 1121.72 2088.43 1115.16C2088.43 1108.49 2087.57 1102.66 2085.85 1097.66C2084.18 1092.66 2081.76 1088.75 2078.58 1085.94C2075.4 1083.12 2071.52 1081.72 2066.94 1081.72C2062.2 1081.72 2058.19 1083.12 2054.91 1085.94C2051.68 1088.75 2049.21 1092.66 2047.49 1097.66C2045.82 1102.66 2044.99 1108.49 2044.99 1115.16C2044.99 1121.72 2045.82 1127.5 2047.49 1132.5C2049.21 1137.5 2051.68 1141.41 2054.91 1144.22C2058.19 1147.03 2062.2 1148.44 2066.94 1148.44ZM2146.9 1220V1055H2184.71V1075.55H2185.89C2187.45 1071.9 2189.66 1068.39 2192.53 1065C2195.44 1061.61 2199.14 1058.85 2203.62 1056.72C2208.15 1054.53 2213.57 1053.44 2219.87 1053.44C2228.2 1053.44 2235.99 1055.62 2243.23 1060C2250.52 1064.37 2256.41 1071.12 2260.89 1080.23C2265.37 1089.35 2267.61 1100.96 2267.61 1115.08C2267.61 1128.67 2265.44 1140.05 2261.12 1149.22C2256.85 1158.39 2251.07 1165.26 2243.78 1169.84C2236.54 1174.43 2228.49 1176.72 2219.64 1176.72C2213.6 1176.72 2208.36 1175.73 2203.93 1173.75C2199.51 1171.77 2195.78 1169.17 2192.76 1165.94C2189.79 1162.71 2187.5 1159.24 2185.89 1155.55H2185.11V1220H2146.9ZM2184.32 1115C2184.32 1121.46 2185.18 1127.08 2186.9 1131.87C2188.67 1136.67 2191.2 1140.39 2194.48 1143.05C2197.81 1145.65 2201.8 1146.95 2206.43 1146.95C2211.12 1146.95 2215.11 1145.65 2218.39 1143.05C2221.67 1140.39 2224.14 1136.67 2225.81 1131.87C2227.53 1127.08 2228.39 1121.46 2228.39 1115C2228.39 1108.54 2227.53 1102.94 2225.81 1098.2C2224.14 1093.46 2221.67 1089.79 2218.39 1087.19C2215.16 1084.58 2211.17 1083.28 2206.43 1083.28C2201.75 1083.28 2197.76 1084.56 2194.48 1087.11C2191.2 1089.66 2188.67 1093.31 2186.9 1098.05C2185.18 1102.79 2184.32 1108.44 2184.32 1115ZM2343.72 1177.27C2331.17 1177.27 2320.33 1174.79 2311.22 1169.84C2302.16 1164.84 2295.18 1157.73 2290.28 1148.52C2285.44 1139.24 2283.02 1128.23 2283.02 1115.47C2283.02 1103.07 2285.46 1092.24 2290.36 1082.97C2295.26 1073.65 2302.16 1066.41 2311.06 1061.25C2319.97 1056.04 2330.46 1053.44 2342.55 1053.44C2351.09 1053.44 2358.9 1054.77 2365.98 1057.42C2373.07 1060.08 2379.19 1064.01 2384.34 1069.22C2389.5 1074.43 2393.51 1080.86 2396.38 1088.52C2399.24 1096.12 2400.67 1104.84 2400.67 1114.69V1124.22H2296.38V1102.03H2365.13C2365.07 1097.97 2364.11 1094.35 2362.23 1091.17C2360.36 1087.99 2357.78 1085.52 2354.5 1083.75C2351.27 1081.93 2347.55 1081.02 2343.33 1081.02C2339.06 1081.02 2335.23 1081.98 2331.84 1083.91C2328.46 1085.78 2325.78 1088.36 2323.8 1091.64C2321.82 1094.87 2320.78 1098.54 2320.67 1102.66V1125.23C2320.67 1130.13 2321.64 1134.43 2323.56 1138.12C2325.49 1141.77 2328.22 1144.61 2331.77 1146.64C2335.31 1148.67 2339.53 1149.69 2344.42 1149.69C2347.81 1149.69 2350.88 1149.22 2353.64 1148.28C2356.4 1147.34 2358.77 1145.96 2360.75 1144.14C2362.73 1142.32 2364.21 1140.08 2365.2 1137.42L2400.28 1138.44C2398.82 1146.3 2395.62 1153.15 2390.67 1158.98C2385.78 1164.77 2379.34 1169.27 2371.38 1172.5C2363.41 1175.68 2354.19 1177.27 2343.72 1177.27ZM2458.39 1106.56V1175H2420.18V1055H2456.51V1077.03H2457.84C2460.5 1069.69 2465.03 1063.93 2471.43 1059.77C2477.84 1055.55 2485.47 1053.44 2494.32 1053.44C2502.76 1053.44 2510.08 1055.34 2516.28 1059.14C2522.53 1062.89 2527.37 1068.15 2530.81 1074.92C2534.3 1081.64 2536.02 1089.51 2535.96 1098.52V1175H2497.76V1106.02C2497.81 1099.35 2496.12 1094.14 2492.68 1090.39C2489.3 1086.64 2484.58 1084.77 2478.54 1084.77C2474.53 1084.77 2470.99 1085.65 2467.92 1087.42C2464.9 1089.14 2462.55 1091.61 2460.89 1094.84C2459.27 1098.07 2458.44 1101.98 2458.39 1106.56ZM2559.17 999H2656.85V1022.76H2559.17V999ZM2674.89 1062.58H2761.35V1088.1H2674.89V1062.58ZM2715.59 1080.4H2741.55V1194.8H2715.59V1080.4ZM2664.55 1007.8L2696.23 1015.06C2695.93 1017.26 2693.95 1018.65 2690.29 1019.24V1069.18C2690.29 1078.13 2689.85 1088.03 2688.97 1098.88C2688.09 1109.59 2686.25 1120.66 2683.47 1132.1C2680.83 1143.39 2676.79 1154.39 2671.37 1165.1C2666.09 1175.81 2659.05 1185.56 2650.25 1194.36C2649.22 1192.45 2647.53 1190.33 2645.19 1187.98C2642.84 1185.63 2640.35 1183.36 2637.71 1181.16C2635.21 1179.11 2632.94 1177.57 2630.89 1176.54C2638.51 1168.77 2644.53 1160.33 2648.93 1151.24C2653.47 1142.15 2656.85 1132.83 2659.05 1123.3C2661.39 1113.77 2662.86 1104.38 2663.45 1095.14C2664.18 1085.75 2664.55 1076.95 2664.55 1068.74V1007.8ZM2566.21 1039.48H2591.29V1095.8C2591.29 1103.13 2591.07 1111.2 2590.63 1120C2590.19 1128.65 2589.23 1137.45 2587.77 1146.4C2586.3 1155.35 2584.25 1164 2581.61 1172.36C2578.97 1180.72 2575.52 1188.27 2571.27 1195.02C2569.95 1193.41 2567.97 1191.57 2565.33 1189.52C2562.69 1187.47 2559.97 1185.49 2557.19 1183.58C2554.55 1181.67 2552.35 1180.21 2550.59 1179.18C2555.43 1171.26 2558.95 1162.46 2561.15 1152.78C2563.35 1142.95 2564.74 1133.13 2565.33 1123.3C2565.91 1113.33 2566.21 1104.09 2566.21 1095.58V1039.48ZM2736.93 990.2L2760.03 1010C2752.25 1013.81 2743.75 1017.41 2734.51 1020.78C2725.27 1024.01 2715.88 1026.94 2706.35 1029.58C2696.81 1032.22 2687.5 1034.64 2678.41 1036.84C2677.82 1033.76 2676.57 1030.17 2674.67 1026.06C2672.91 1021.81 2671.22 1018.36 2669.61 1015.72C2677.82 1013.52 2686.03 1011.1 2694.25 1008.46C2702.61 1005.82 2710.45 1002.96 2717.79 999.88C2725.27 996.653 2731.65 993.427 2736.93 990.2ZM2580.73 1039.48H2652.45V1114.5H2580.73V1090.96H2626.93V1063.02H2580.73V1039.48ZM2779.61 1014.62H2975.85V1039.48H2779.61V1014.62ZM2839.01 1094.04H2934.49V1116.04H2839.01V1094.04ZM2819.43 1056.86H2930.53V1079.96H2845.39V1194.58H2819.43V1056.86ZM2925.25 1056.86H2951.21V1166.2C2951.21 1172.65 2950.4 1177.79 2948.79 1181.6C2947.32 1185.41 2944.31 1188.35 2939.77 1190.4C2935.37 1192.45 2929.94 1193.7 2923.49 1194.14C2917.03 1194.58 2909.33 1194.8 2900.39 1194.8C2899.95 1191.13 2898.92 1186.81 2897.31 1181.82C2895.84 1176.98 2894.23 1172.8 2892.47 1169.28C2896.28 1169.43 2900.09 1169.57 2903.91 1169.72C2907.72 1169.87 2911.09 1169.94 2914.03 1169.94C2917.11 1169.94 2919.23 1169.94 2920.41 1169.94C2922.31 1169.79 2923.56 1169.43 2924.15 1168.84C2924.88 1168.25 2925.25 1167.23 2925.25 1165.76V1056.86ZM2847.81 988L2875.09 994.16C2869.95 1010.59 2863.5 1026.94 2855.73 1043.22C2848.1 1059.35 2838.86 1074.39 2828.01 1088.32C2817.3 1102.25 2804.76 1114.21 2790.39 1124.18C2789.07 1122.27 2787.31 1120.07 2785.11 1117.58C2783.05 1114.94 2780.93 1112.45 2778.73 1110.1C2776.67 1107.61 2774.77 1105.55 2773.01 1103.94C2782.69 1097.49 2791.49 1089.86 2799.41 1081.06C2807.47 1072.26 2814.59 1062.73 2820.75 1052.46C2827.05 1042.05 2832.41 1031.41 2836.81 1020.56C2841.35 1009.56 2845.02 998.707 2847.81 988ZM2839.01 1130.34H2934.49V1152.34H2839.01V1130.34ZM2995.43 1011.76H3068.91V1036.84H2995.43V1011.76ZM3020.95 1022.32H3047.13V1132.54H3020.95V1022.32ZM2991.69 1129.02C2997.99 1127.55 3005.33 1125.72 3013.69 1123.52C3022.05 1121.32 3031.07 1118.97 3040.75 1116.48C3050.43 1113.99 3060.11 1111.42 3069.79 1108.78L3073.09 1130.78C3060.03 1135.47 3046.98 1140.09 3033.93 1144.64C3020.87 1149.04 3008.92 1153.15 2998.07 1156.96L2991.69 1129.02ZM3071.77 996.58H3199.37V1020.12H3071.77V996.58ZM3118.85 1007.36L3150.53 1011.54C3147.15 1018.43 3143.71 1025.18 3140.19 1031.78C3136.67 1038.38 3133.59 1044.03 3130.95 1048.72L3106.97 1043.66C3109.46 1038.23 3111.73 1032.22 3113.79 1025.62C3115.99 1018.87 3117.67 1012.79 3118.85 1007.36ZM3119.51 1068.74H3146.13V1114.06C3146.13 1121.69 3145.03 1129.31 3142.83 1136.94C3140.63 1144.57 3136.74 1151.9 3131.17 1158.94C3125.74 1165.98 3118.04 1172.58 3108.07 1178.74C3098.09 1184.9 3085.41 1190.4 3070.01 1195.24C3068.98 1193.33 3067.44 1191.13 3065.39 1188.64C3063.48 1186.15 3061.43 1183.65 3059.23 1181.16C3057.17 1178.67 3055.12 1176.61 3053.07 1175C3067.88 1171.33 3079.69 1167.15 3088.49 1162.46C3097.29 1157.62 3103.89 1152.49 3108.29 1147.06C3112.83 1141.49 3115.84 1135.91 3117.31 1130.34C3118.77 1124.62 3119.51 1119.05 3119.51 1113.62V1068.74ZM3138.43 1159.16L3154.71 1143.32C3159.99 1146.25 3165.56 1149.7 3171.43 1153.66C3177.44 1157.47 3183.16 1161.36 3188.59 1165.32C3194.16 1169.13 3198.71 1172.65 3202.23 1175.88L3184.63 1193.7C3181.4 1190.47 3177.15 1186.73 3171.87 1182.48C3166.73 1178.37 3161.16 1174.27 3155.15 1170.16C3149.28 1166.05 3143.71 1162.39 3138.43 1159.16ZM3077.93 1037.28H3188.37V1140.46H3161.31V1060.38H3103.67V1141.12H3077.93V1037.28ZM3257.45 1050.92H3376.91V1076H3257.45V1050.92ZM3257.45 1101.96H3376.91V1127.04H3257.45V1101.96ZM3257.45 1152.78H3376.91V1178.52H3257.45V1152.78ZM3238.53 1000.1H3395.39V1192.38H3367.23V1025.84H3265.15V1192.38H3238.53V1000.1Z" fill="white"/>
    </g>
    <defs>
        <linearGradient id="paint0_linear_506_35" x1="7775.81" y1="1613.27" x2="720.347" y2="3126.31" gradientUnits="userSpaceOnUse">
            <stop offset="0.62" stop-color="#6B57FF" stop-opacity="0.2"/>
            <stop offset="0.85" stop-color="#087CFA" stop-opacity="0.4"/>
            <stop offset="0.975" stop-color="#3BEA62"/>
        </linearGradient>
        <linearGradient id="paint1_linear_506_35" x1="7286.96" y1="1116.94" x2="1500.52" y2="3400.08" gradientUnits="userSpaceOnUse">
            <stop offset="0.62" stop-color="#6B57FF" stop-opacity="0.2"/>
            <stop offset="0.85" stop-color="#087CFA" stop-opacity="0.4"/>
            <stop offset="0.975" stop-color="#3BEA62"/>
        </linearGradient>
        <linearGradient id="paint2_linear_506_35" x1="6801.15" y1="763.883" x2="2202.67" y2="3522.72" gradientUnits="userSpaceOnUse">
            <stop offset="0.62" stop-color="#6B57FF" stop-opacity="0.2"/>
            <stop offset="0.85" stop-color="#087CFA" stop-opacity="0.4"/>
            <stop offset="0.975" stop-color="#3BEA62"/>
        </linearGradient>
        <linearGradient id="paint3_linear_506_35" x1="6338.13" y1="532.247" x2="2817.11" y2="3527.85" gradientUnits="userSpaceOnUse">
            <stop offset="0.62" stop-color="#6B57FF" stop-opacity="0.2"/>
            <stop offset="0.85" stop-color="#087CFA" stop-opacity="0.4"/>
            <stop offset="0.975" stop-color="#3BEA62"/>
        </linearGradient>
        <linearGradient id="paint4_linear_506_35" x1="5911.67" y1="400.65" x2="3340.36" y2="3445.44" gradientUnits="userSpaceOnUse">
            <stop offset="0.62" stop-color="#6B57FF" stop-opacity="0.2"/>
            <stop offset="0.85" stop-color="#087CFA" stop-opacity="0.4"/>
            <stop offset="0.975" stop-color="#3BEA62"/>
        </linearGradient>
        <linearGradient id="paint5_linear_506_35" x1="5530.4" y1="348.964" x2="3773.71" y2="3301.45" gradientUnits="userSpaceOnUse">
            <stop offset="0.62" stop-color="#6B57FF" stop-opacity="0.2"/>
            <stop offset="0.85" stop-color="#087CFA" stop-opacity="0.4"/>
            <stop offset="0.975" stop-color="#3BEA62"/>
        </linearGradient>
        <linearGradient id="paint6_linear_506_35" x1="5198.87" y1="358.854" x2="4121.91" y2="3117.81" gradientUnits="userSpaceOnUse">
            <stop offset="0.62" stop-color="#6B57FF" stop-opacity="0.2"/>
            <stop offset="0.85" stop-color="#087CFA" stop-opacity="0.4"/>
            <stop offset="0.975" stop-color="#3BEA62"/>
        </linearGradient>
        <linearGradient id="paint7_linear_506_35" x1="4918.32" y1="414.086" x2="4392.09" y2="2912.46" gradientUnits="userSpaceOnUse">
            <stop offset="0.62" stop-color="#6B57FF" stop-opacity="0.2"/>
            <stop offset="0.85" stop-color="#087CFA" stop-opacity="0.4"/>
            <stop offset="0.975" stop-color="#3BEA62"/>
        </linearGradient>
        <linearGradient id="paint8_linear_506_35" x1="4687.54" y1="500.677" x2="4592.85" y2="2699.66" gradientUnits="userSpaceOnUse">
            <stop offset="0.62" stop-color="#6B57FF" stop-opacity="0.2"/>
            <stop offset="0.85" stop-color="#087CFA" stop-opacity="0.4"/>
            <stop offset="0.975" stop-color="#3BEA62"/>
        </linearGradient>
        <linearGradient id="paint9_linear_506_35" x1="4503.5" y1="606.908" x2="4733.54" y2="2490.35" gradientUnits="userSpaceOnUse">
            <stop offset="0.62" stop-color="#6B57FF" stop-opacity="0.2"/>
            <stop offset="0.85" stop-color="#087CFA" stop-opacity="0.4"/>
            <stop offset="0.975" stop-color="#3BEA62"/>
        </linearGradient>
        <clipPath id="clip0_506_35">
            <rect width="5120" height="3156" fill="white"/>
        </clipPath>
    </defs>
</svg>
